<svg width="24" height="25" viewBox="0 0 24 25" fill="none" xmlns="http://www.w3.org/2000/svg">
<path d="M2 12.5C2 7.786 2 5.429 3.464 3.964C4.93 2.5 7.286 2.5 12 2.5C16.714 2.5 19.071 2.5 20.535 3.964C22 5.43 22 7.786 22 12.5C22 17.214 22 19.571 20.535 21.035C19.072 22.5 16.714 22.5 12 22.5C7.286 22.5 4.929 22.5 3.464 21.035C2 19.572 2 17.214 2 12.5Z" stroke="#B30608" stroke-width="1.5"/>
<path d="M14.5 10L9.5 15M9.5 10L14.5 15" stroke="#B30608" stroke-width="1.5" stroke-linecap="round"/>
</svg>
