<svg width="22" height="23" viewBox="0 0 22 23" fill="none" xmlns="http://www.w3.org/2000/svg">
<path d="M20.6088 13.062L20.8388 10.626C21.0188 8.714 21.1088 7.757 20.7808 7.362C20.6981 7.25935 20.5958 7.17407 20.48 7.11109C20.3641 7.0481 20.237 7.00865 20.1058 6.995C19.6298 6.953 19.0328 7.633 17.8378 8.993C17.2198 9.697 16.9108 10.048 16.5668 10.103C16.3747 10.1332 16.1779 10.1016 16.0048 10.013C15.6858 9.853 15.4748 9.418 15.0498 8.549L12.8128 3.965C12.0108 2.322 11.6098 1.5 10.9998 1.5C10.3898 1.5 9.98882 2.322 9.18682 3.965L6.94982 8.549C6.52582 9.419 6.31382 9.853 5.99482 10.013C5.8215 10.101 5.62496 10.1325 5.43283 10.103C5.08883 10.048 4.77983 9.697 4.16183 8.993C2.96683 7.633 2.36983 6.953 1.89382 6.995C1.76267 7.00865 1.63552 7.0481 1.51967 7.11109C1.40383 7.17407 1.30158 7.25935 1.21883 7.362C0.891825 7.757 0.981825 8.714 1.16182 10.626L1.39082 13.062C1.76882 17.074 1.95682 19.081 3.14082 20.29C4.32182 21.5 6.09382 21.5 9.63982 21.5H12.3588C15.9038 21.5 17.6758 21.5 18.8588 20.29C20.0418 19.08 20.2308 17.074 20.6088 13.062Z" stroke="#8247E5" stroke-width="1.5"/>
<path d="M8 17.5H14" stroke="#8247E5" stroke-width="1.5" stroke-linecap="round"/>
</svg>
