<svg width="24" height="25" viewBox="0 0 24 25" fill="none" xmlns="http://www.w3.org/2000/svg">
<path d="M12 22.5C17.5228 22.5 22 18.0228 22 12.5C22 6.97715 17.5228 2.5 12 2.5C6.47715 2.5 2 6.97715 2 12.5C2 18.0228 6.47715 22.5 12 22.5Z" stroke="#75B629" stroke-width="1.5"/>
<path d="M12 6.5V18.5M15 10C15 8.62 13.657 7.5 12 7.5C10.343 7.5 9 8.62 9 10C9 11.38 10.343 12.5 12 12.5C13.657 12.5 15 13.62 15 15C15 16.38 13.657 17.5 12 17.5C10.343 17.5 9 16.38 9 15" stroke="#75B629" stroke-width="1.5" stroke-linecap="round"/>
</svg>
